<svg width="50.000061" height="50.000000" viewBox="0 0 50.0001 50" fill="none" xmlns="http://www.w3.org/2000/svg" xmlns:xlink="http://www.w3.org/1999/xlink">
	<desc>
			Created with Pixso.
	</desc>
	<defs/>
	<path id="Vector" d="M44.7443 9.66895C48.1585 14.0493 50.0086 19.446 50 24.9998C50 38.8049 38.8052 49.9998 25.0007 49.9998C15.2872 49.9998 6.86609 44.4573 2.72763 36.3645L13.6238 36.3645C18.8161 36.3645 22.443 33.5657 22.443 29.092C22.443 19.6106 11.5052 23.4734 11.5052 20.1086C11.5052 18.4875 12.8058 17.8977 15.1859 17.8977L22.7693 17.8977C24.8712 17.8977 27.3436 18.2747 27.3436 20.5684L27.3436 28.124C27.3436 33.5952 31.6161 36.3638 36.0443 36.3638C40.5481 36.3638 44.7436 33.5952 44.7436 28.124L44.7436 9.66895L44.7443 9.66895Z" fill="#FFFFFF" fill-opacity="1.000000" fill-rule="evenodd"/>
	<path id="Vector" d="M25.0006 0C30.0174 -0.00708008 34.9192 1.50269 39.0628 4.33081L39.0628 28.3013C39.0628 29.9629 37.7038 31.3225 36.0449 31.3225C34.384 31.3225 33.0263 29.9629 33.0263 28.3013L33.0263 21.1187C33.0263 15.3845 30.1244 12.9993 26.3448 12.9993L14.0442 12.9993C9.59103 12.9993 5.89679 15.834 5.89679 20.3289C5.89679 22.6289 6.88205 25.9993 11.5417 26.8352C15.3372 27.5186 16.8353 27.3198 16.8353 29.3506C16.8353 31.3225 14.6263 31.3225 11.7103 31.3225L0.80835 31.3225C0.269836 29.2581 -0.00183105 27.1333 0 25C0 11.198 11.1962 0 25.0006 0Z" fill="#FFFFFF" fill-opacity="1.000000" fill-rule="evenodd"/>
</svg>
