<svg width="34.962952" height="24.000244" viewBox="0 0 34.963 24.0002" fill="none" xmlns="http://www.w3.org/2000/svg" xmlns:xlink="http://www.w3.org/1999/xlink">
	<desc>
			Created with Pixso.
	</desc>
	<defs/>
	<path id="Vector" d="M0.729858 1.94727C5.52838 5.66675 13.9483 12.2102 16.423 14.2507C16.7552 14.5259 17.1116 14.666 17.4814 14.666C17.8506 14.666 18.2064 14.5273 18.5378 14.2532C21.0146 12.2109 29.4346 5.66675 34.2332 1.94727C34.5319 1.71606 34.5775 1.30981 34.3356 1.02734C33.7765 0.374268 32.9428 0 32.0493 0L2.91357 0C2.0202 0 1.18646 0.374268 0.627441 1.02734C0.385559 1.30981 0.431091 1.71606 0.729858 1.94727Z" fill="#CD06FF" fill-opacity="1.000000" fill-rule="nonzero"/>
	<path id="Vector" d="M34.5405 3.96313C34.2823 3.85303 33.9785 3.89136 33.7637 4.05933C28.4423 8.18823 21.6505 13.4807 19.5137 15.2429C18.3144 16.2339 16.6499 16.2339 15.4478 15.2417C13.1701 13.3635 5.54327 7.4292 1.19928 4.05933C0.982971 3.89136 0.678589 3.85425 0.422485 3.96289C0.165039 4.07251 0 4.30811 0 4.56787L0 21.3335C0 22.8042 1.3067 24.0002 2.91357 24.0002L32.0494 24.0002C33.6563 24.0002 34.963 22.8042 34.963 21.3335L34.963 4.56787C34.963 4.30811 34.7979 4.07178 34.5405 3.96313Z" fill="#CD06FF" fill-opacity="1.000000" fill-rule="nonzero"/>
</svg>
